<?xml version="1.0" encoding="UTF-8"?>
<!DOCTYPE svg PUBLIC "-//W3C//DTD SVG 1.1//EN" "http://www.w3.org/Graphics/SVG/1.1/DTD/svg11.dtd">
<svg xmlns="http://www.w3.org/2000/svg" version="1.1" width="117px" height="41px" style="shape-rendering:geometricPrecision; text-rendering:geometricPrecision; image-rendering:optimizeQuality; fill-rule:evenodd; clip-rule:evenodd" xmlns:xlink="http://www.w3.org/1999/xlink">
<g><path style="opacity:0.996" fill="#23a5df" d="M 48.5,-0.5 C 49.1667,-0.5 49.8333,-0.5 50.5,-0.5C 51.6493,2.60122 51.3159,5.60122 49.5,8.5C 47.9605,10.8383 47.2938,13.5049 47.5,16.5C 45.8714,18.8577 44.7048,21.5243 44,24.5C 42.3845,25.8009 40.8845,25.8009 39.5,24.5C 41.0395,22.1617 41.7062,19.4951 41.5,16.5C 43.0493,12.7093 44.716,8.87601 46.5,5C 46.0426,4.58605 45.7093,4.08605 45.5,3.5C 46.8262,2.35782 47.8262,1.02449 48.5,-0.5 Z"/></g>
<g><path style="opacity:1" fill="#26366e" d="M 13.5,15.5 C 12.8166,13.8235 11.4832,13.1568 9.5,13.5C 13.5681,12.3937 13.4014,11.3937 9,10.5C 7.415,11.0439 5.915,11.7106 4.5,12.5C 4.84316,10.5168 4.17649,9.18342 2.5,8.5C 9.51572,3.78102 14.8491,5.28102 18.5,13C 17.615,15.1566 15.9484,15.9899 13.5,15.5 Z"/></g>
<g><path style="opacity:1" fill="#1b3069" d="M 41.5,16.5 C 41.7062,19.4951 41.0395,22.1617 39.5,24.5C 38.4422,22.1916 37.2755,19.8583 36,17.5C 35.7132,19.8907 35.2132,22.2241 34.5,24.5C 33.3112,25.4287 31.9778,25.762 30.5,25.5C 30.852,19.3882 31.852,13.3882 33.5,7.5C 34.8333,6.16667 36.1667,6.16667 37.5,7.5C 38.609,10.7081 39.9423,13.7081 41.5,16.5 Z"/></g>
<g><path style="opacity:1" fill="#182d69" d="M 54.5,7.5 C 57.8333,7.5 61.1667,7.5 64.5,7.5C 64.5,8.5 64.5,9.5 64.5,10.5C 62.5,10.5 60.5,10.5 58.5,10.5C 58.5,11.5 58.5,12.5 58.5,13.5C 60.8333,13.5 63.1667,13.5 65.5,13.5C 65.5,14.8333 65.5,16.1667 65.5,17.5C 63.1667,17.5 60.8333,17.5 58.5,17.5C 58.5,18.8333 58.5,20.1667 58.5,21.5C 60.8333,21.5 63.1667,21.5 65.5,21.5C 65.5,22.8333 65.5,24.1667 65.5,25.5C 61.5,25.5 57.5,25.5 53.5,25.5C 54.2412,19.5293 54.5745,13.5293 54.5,7.5 Z"/></g>
<g><path style="opacity:1" fill="#1a2e67" d="M 54.5,7.5 C 64.992,6.34121 75.6586,6.17455 86.5,7C 87.3805,7.7083 88.0472,8.54163 88.5,9.5C 88.1806,13.2998 87.1806,13.4665 85.5,10C 81.1794,9.50098 76.8461,9.33432 72.5,9.5C 72.5,14.8333 72.5,20.1667 72.5,25.5C 71.1667,25.5 69.8333,25.5 68.5,25.5C 68.5,20.5 68.5,15.5 68.5,10.5C 67.1667,10.5 65.8333,10.5 64.5,10.5C 64.5,9.5 64.5,8.5 64.5,7.5C 61.1667,7.5 57.8333,7.5 54.5,7.5 Z"/></g>
<g><path style="opacity:0.796" fill="#122d66" d="M 92.5,6.5 C 93.8333,6.5 95.1667,6.5 96.5,6.5C 96.5,12.8333 96.5,19.1667 96.5,25.5C 95.1667,25.5 93.8333,25.5 92.5,25.5C 92.5,19.1667 92.5,12.8333 92.5,6.5 Z"/></g>
<g><path style="opacity:0.997" fill="#1a2f69" d="M 116.5,9.5 C 116.5,10.5 116.5,11.5 116.5,12.5C 115.504,12.4142 114.671,12.7476 114,13.5C 108.97,9.05 105.136,9.88333 102.5,16C 104.703,22.454 108.37,23.6207 113.5,19.5C 114.518,20.1925 115.518,20.8592 116.5,21.5C 116.5,22.1667 116.5,22.8333 116.5,23.5C 110.726,27.7576 105.226,27.4242 100,22.5C 96.4376,11.0643 100.604,5.89766 112.5,7C 113.984,7.66218 115.317,8.49551 116.5,9.5 Z"/></g>
<g><path style="opacity:1" fill="#1b2f69" d="M 2.5,8.5 C 4.17649,9.18342 4.84316,10.5168 4.5,12.5C 4.36899,13.2389 4.53566,13.9056 5,14.5C 6.35613,13.6198 7.85613,13.2865 9.5,13.5C 11.4832,13.1568 12.8166,13.8235 13.5,15.5C 10.976,16.7399 8.3093,17.9066 5.5,19C 8.99508,22.2775 11.9951,21.7775 14.5,17.5C 16.0453,16.5481 17.712,16.2148 19.5,16.5C 18.6676,22.7764 15.001,26.1097 8.5,26.5C 4.04526,25.8006 1.04526,23.4673 -0.5,19.5C -0.5,16.8333 -0.5,14.1667 -0.5,11.5C 0.271873,10.3065 1.27187,9.30646 2.5,8.5 Z"/></g>
<g><path style="opacity:1" fill="#162d67" d="M 88.5,9.5 C 89.8816,12.4112 89.5482,15.2445 87.5,18C 88.3632,20.2265 89.3632,22.3932 90.5,24.5C 86.1538,25.9253 83.6538,24.2586 83,19.5C 82.5045,21.4727 82.3379,23.4727 82.5,25.5C 81.1667,25.5 79.8333,25.5 78.5,25.5C 78.3347,21.8183 78.5014,18.1516 79,14.5C 81.1474,13.8875 83.314,13.2208 85.5,12.5C 85.2907,11.914 84.9574,11.414 84.5,11C 80.8484,10.5014 77.1817,10.3347 73.5,10.5C 73.8205,15.6946 73.4872,20.6946 72.5,25.5C 72.5,20.1667 72.5,14.8333 72.5,9.5C 76.8461,9.33432 81.1794,9.50098 85.5,10C 87.1806,13.4665 88.1806,13.2998 88.5,9.5 Z"/></g>
<g><path style="opacity:1" fill="#162e69" d="M 49.5,8.5 C 51.1366,13.9268 52.1366,19.5935 52.5,25.5C 51.0222,25.762 49.6888,25.4287 48.5,24.5C 47.6072,21.9159 47.2739,19.2492 47.5,16.5C 47.2938,13.5049 47.9605,10.8383 49.5,8.5 Z"/></g>
<g><path style="opacity:0.4" fill="#1d3469" d="M 21.5,16.5 C 23.8333,16.5 26.1667,16.5 28.5,16.5C 28.5,17.8333 28.5,19.1667 28.5,20.5C 26.1667,20.5 23.8333,20.5 21.5,20.5C 21.5,19.1667 21.5,17.8333 21.5,16.5 Z"/></g>
<g><path style="opacity:0.259" fill="#2b3d6e" d="M 67.5,40.5 C 66.1667,40.5 64.8333,40.5 63.5,40.5C 64.7391,37.1632 64.7391,33.8299 63.5,30.5C 64.325,29.6143 65.325,29.281 66.5,29.5C 66.3227,33.2343 66.6561,36.9009 67.5,40.5 Z"/></g>
<g><path style="opacity:0.71" fill="#2f3f73" d="M 7.5,40.5 C 5.5,40.5 3.5,40.5 1.5,40.5C 1.22911,38.6203 1.89578,37.287 3.5,36.5C 0.669478,32.1895 2.00281,30.1895 7.5,30.5C 7.74097,33.999 6.90764,34.3323 5,31.5C 4.83333,31.8333 4.66667,32.1667 4.5,32.5C 5.83333,34.1667 7.16667,35.8333 8.5,37.5C 7.87277,38.4168 7.53944,39.4168 7.5,40.5 Z M 3.5,36.5 C 4.28913,36.7828 4.9558,37.2828 5.5,38C 4.18398,38.5281 3.51731,38.0281 3.5,36.5 Z"/></g>
<g><path style="opacity:0.235" fill="#515a86" d="M 22.5,40.5 C 21.1667,40.5 19.8333,40.5 18.5,40.5C 19.6225,38.4816 19.6225,36.4816 18.5,34.5C 18.9766,33.069 19.6433,31.7357 20.5,30.5C 21.3081,30.8076 21.9747,31.3076 22.5,32C 22.2964,34.6213 22.2964,37.4547 22.5,40.5 Z"/></g>
<g><path style="opacity:0.933" fill="#273b6e" d="M 50.5,33.5 C 52.6044,35.5832 52.9377,37.9165 51.5,40.5C 49.8333,40.5 48.1667,40.5 46.5,40.5C 46.1568,38.5168 46.8235,37.1834 48.5,36.5C 45.2073,31.7778 46.5407,29.7778 52.5,30.5C 52.7148,32.1788 52.0481,33.1788 50.5,33.5 Z M 50.5,33.5 C 48.663,33.3605 48.3296,32.6939 49.5,31.5C 50.2975,31.9569 50.6309,32.6236 50.5,33.5 Z M 48.5,36.5 C 49.2891,36.7828 49.9558,37.2828 50.5,38C 49.184,38.5281 48.5173,38.0281 48.5,36.5 Z"/></g>
<g><path style="opacity:0.271" fill="#485781" d="M 88.5,40.5 C 87.1667,40.5 85.8333,40.5 84.5,40.5C 85.6225,38.4816 85.6225,36.4816 84.5,34.5C 85.0831,32.9984 85.9164,31.6651 87,30.5C 88.4051,33.6188 88.9051,36.9521 88.5,40.5 Z"/></g>
<g><path style="opacity:0.216" fill="#2d4171" d="M 60.5,40.5 C 59.1667,40.5 57.8333,40.5 56.5,40.5C 53.5008,37.1615 54.1675,34.8282 58.5,33.5C 62.4401,35.0209 63.1067,37.3542 60.5,40.5 Z M 57.5,35.5 C 59.4646,35.9483 59.7979,36.9483 58.5,38.5C 57.6143,37.675 57.281,36.675 57.5,35.5 Z"/></g>
<g><path style="opacity:0.23" fill="#273d71" d="M 17.5,40.5 C 15.5,40.5 13.5,40.5 11.5,40.5C 10.8384,38.5295 10.1717,36.5295 9.5,34.5C 10.325,33.6143 11.325,33.281 12.5,33.5C 12.2148,35.288 12.5481,36.9547 13.5,38.5C 14.6446,37.2243 14.6446,35.891 13.5,34.5C 14.325,33.6143 15.325,33.281 16.5,33.5C 16.448,35.9029 16.7814,38.2362 17.5,40.5 Z"/></g>
<g><path style="opacity:0.566" fill="#22386e" d="M 83.5,40.5 C 82.5,40.5 81.5,40.5 80.5,40.5C 78.3658,37.1646 78.5325,34.1646 81,31.5C 81.6449,32.646 82.4783,33.646 83.5,34.5C 82.689,35.2164 82.0223,36.0497 81.5,37C 82.4295,38.0769 83.0962,39.2436 83.5,40.5 Z"/></g>
<g><path style="opacity:0.484" fill="#213a6e" d="M 29.5,40.5 C 28.1667,40.5 26.8333,40.5 25.5,40.5C 25.6816,38.4086 25.3482,36.4086 24.5,34.5C 25.1449,33.354 25.9783,32.354 27,31.5C 27.6449,32.646 28.4783,33.646 29.5,34.5C 28.689,35.2164 28.0223,36.0497 27.5,37C 28.4295,38.0769 29.0962,39.2436 29.5,40.5 Z"/></g>
<g><path style="opacity:0.859" fill="#283c6e" d="M 96.5,40.5 C 95.1667,40.5 93.8333,40.5 92.5,40.5C 89.5635,35.2653 91.0635,33.2653 97,34.5C 97.6776,36.5976 97.5109,38.5976 96.5,40.5 Z M 93.5,35.5 C 95.4646,35.9483 95.7979,36.9483 94.5,38.5C 93.6143,37.675 93.281,36.675 93.5,35.5 Z"/></g>
<g><path style="opacity:0.227" fill="#2d3f71" d="M 113.5,40.5 C 112.167,40.5 110.833,40.5 109.5,40.5C 109.5,38.1667 109.5,35.8333 109.5,33.5C 110.833,33.5 112.167,33.5 113.5,33.5C 113.5,35.8333 113.5,38.1667 113.5,40.5 Z"/></g>
<g><path style="opacity:0.298" fill="#273b6c" d="M 107.5,40.5 C 104.833,40.5 102.167,40.5 99.5,40.5C 100.623,38.4816 100.623,36.4816 99.5,34.5C 105.248,32.2393 107.914,34.2393 107.5,40.5 Z M 102.5,35.5 C 104.465,35.9483 104.798,36.9483 103.5,38.5C 102.614,37.675 102.281,36.675 102.5,35.5 Z"/></g>
<g><path style="opacity:0.184" fill="#283b6f" d="M 77.5,40.5 C 75.5,40.5 73.5,40.5 71.5,40.5C 70.8384,38.5295 70.1717,36.5295 69.5,34.5C 71.7427,33.5258 74.076,33.1924 76.5,33.5C 76.298,35.9496 76.6314,38.283 77.5,40.5 Z M 72.5,35.5 C 74.4646,35.9483 74.7979,36.9483 73.5,38.5C 72.6143,37.675 72.281,36.675 72.5,35.5 Z"/></g>
<g><path style="opacity:0.38" fill="#314372" d="M 36.5,40.5 C 35.1667,40.5 33.8333,40.5 32.5,40.5C 30.1515,35.1052 31.6515,33.1052 37,34.5C 37.6776,36.5976 37.5109,38.5976 36.5,40.5 Z"/></g>
</svg>
